<?xml version="1.0" standalone="no"?>
<!DOCTYPE svg PUBLIC "-//W3C//DTD SVG 20010904//EN"
 "http://www.w3.org/TR/2001/REC-SVG-20010904/DTD/svg10.dtd">
<svg version="1.0" xmlns="http://www.w3.org/2000/svg"
 width="194.000000pt" height="194.000000pt" viewBox="0 0 194.000000 194.000000"
 preserveAspectRatio="xMidYMid meet">
<metadata>
Created by potrace 1.14, written by Peter Selinger 2001-2017
</metadata>
<g transform="translate(0.000000,194.000000) scale(0.100000,-0.100000)"
fill="#000000" stroke="none">
<path d="M160 1889 c0 -6 -6 -9 -13 -6 -8 3 -13 -3 -13 -18 0 -13 4 -21 8 -19
4 3 8 -2 8 -11 0 -9 7 -23 16 -32 8 -9 13 -22 10 -30 -3 -8 -2 -12 2 -9 7 4
38 -47 43 -72 1 -4 9 -13 18 -20 13 -11 13 -12 1 -7 -13 6 -13 5 0 -7 9 -7 15
-23 14 -35 -1 -13 2 -23 7 -23 5 0 6 -7 3 -15 -4 -8 -2 -15 4 -15 5 0 9 -8 8
-17 -1 -12 6 -17 17 -16 10 0 16 -2 13 -5 -9 -9 15 -32 26 -25 6 3 9 0 6 -7
-2 -8 3 -21 11 -30 9 -9 22 -26 30 -37 12 -18 22 -20 110 -17 111 4 127 6 143
22 16 16 31 15 22 0 -4 -7 13 7 37 32 25 25 44 48 42 52 -2 4 6 9 17 13 11 3
20 10 20 15 0 9 39 25 53 22 4 -1 7 2 7 8 0 5 7 10 16 10 8 0 13 4 10 9 -10
15 23 36 36 23 8 -8 7 -13 -5 -18 -9 -3 -14 -10 -11 -15 3 -5 0 -8 -8 -7 -7 2
-12 -3 -10 -10 1 -8 -2 -11 -7 -8 -5 4 -12 2 -16 -4 -4 -6 -12 -7 -18 -4 -7 4
-9 4 -5 -1 16 -17 -95 -140 -118 -131 -7 3 -16 1 -19 -4 -11 -17 -226 -162
-232 -156 -10 9 -34 -15 -26 -27 3 -5 1 -7 -4 -4 -6 4 -22 -2 -35 -13 -14 -11
-28 -17 -31 -14 -11 12 -98 -120 -111 -170 -29 -103 -44 -171 -39 -179 2 -4
21 2 41 15 28 17 54 23 116 25 71 2 77 1 60 -11 -10 -8 -21 -10 -22 -5 -2 5
-8 7 -12 4 -5 -3 -7 -12 -4 -19 3 -8 0 -17 -7 -22 -8 -4 -10 -3 -5 4 4 7 5 12
2 12 -3 0 -10 -10 -17 -21 -8 -15 -8 -19 0 -15 18 11 13 -9 -9 -34 -11 -12
-17 -27 -14 -31 3 -5 1 -9 -4 -9 -15 0 -30 -104 -25 -174 2 -33 4 -71 4 -83
-1 -12 13 -61 30 -110 17 -48 31 -96 32 -105 1 -9 4 -15 8 -13 3 2 23 -22 45
-55 21 -32 40 -57 42 -55 2 2 17 -10 33 -28 16 -17 29 -27 29 -22 0 5 6 1 13
-10 9 -11 19 -15 27 -10 8 5 11 4 7 -2 -4 -6 7 -16 23 -23 17 -7 30 -18 30
-24 0 -7 3 -7 8 -1 4 6 15 11 25 11 10 1 16 0 13 -4 -3 -3 2 -11 12 -18 13 -9
20 -10 31 -1 10 8 13 8 8 1 -8 -13 72 -22 183 -19 88 1 194 29 184 48 -5 9 -4
9 6 0 19 -17 32 -9 139 81 25 22 46 43 46 48 0 5 7 13 15 18 8 5 11 10 7 10
-4 0 4 20 18 43 27 47 53 122 61 176 2 19 9 40 14 46 5 6 5 16 1 24 -4 7 -5
30 -1 52 4 22 3 39 -2 39 -5 0 -4 8 1 19 6 10 7 21 4 25 -4 4 -8 15 -10 24
-12 80 -56 201 -84 232 -13 14 -22 28 -21 33 1 4 -5 7 -14 7 -9 0 -12 5 -8 12
4 6 3 8 -2 5 -6 -3 -24 9 -42 28 -36 36 -94 68 -129 70 -33 1 -36 9 -19 63 15
53 16 69 3 90 -5 6 -6 16 -3 21 3 5 -1 14 -9 21 -8 7 -15 18 -15 24 0 6 -16
33 -34 60 -30 41 -35 55 -33 99 2 29 6 57 10 63 8 13 -1 24 -20 24 -7 0 -13
-9 -13 -20 0 -11 -4 -20 -10 -20 -5 0 -10 -5 -10 -11 0 -5 4 -8 8 -5 5 3 9 -1
9 -9 0 -8 -4 -15 -8 -15 -4 0 -5 -15 -3 -32 4 -20 -1 -45 -10 -62 l-15 -29 -3
54 c-2 39 1 57 12 66 8 7 10 13 4 13 -13 0 -6 50 8 50 5 0 4 8 -2 19 -5 11 -9
35 -9 53 l2 33 6 -35 c4 -23 12 -36 25 -38 14 -3 17 0 13 12 -9 22 8 29 24 9
12 -14 12 -16 -1 -9 -8 4 -4 -1 10 -13 23 -18 24 -23 13 -51 -11 -28 -10 -31
5 -25 13 5 14 3 5 -6 -8 -8 -8 -17 -2 -28 5 -9 20 -50 34 -91 13 -41 28 -74
34 -73 6 2 8 -4 4 -13 -3 -8 -2 -14 3 -12 5 2 9 0 9 -4 0 -4 24 -23 53 -42 31
-20 48 -36 40 -39 -30 -11 70 -19 126 -10 34 5 118 9 188 9 121 -1 126 0 123
19 -4 31 -17 59 -34 73 -13 11 -13 12 -1 6 13 -7 13 -6 1 9 -8 10 -25 41 -38
70 -25 53 -70 103 -114 123 -83 40 -111 48 -174 52 -38 2 -79 9 -90 16 -11 7
-43 18 -71 25 -36 9 -51 17 -51 29 0 9 5 20 11 24 7 5 4 8 -6 8 -10 0 -18 -7
-18 -15 0 -18 -5 -19 -32 -4 -17 9 -18 13 -7 20 30 19 115 7 102 -15 -3 -6 -3
-8 2 -4 4 4 17 2 29 -4 32 -17 186 -32 186 -18 0 7 110 36 123 32 4 -1 7 2 7
8 0 5 10 14 21 21 17 9 20 8 13 -3 -6 -11 -5 -11 9 1 9 7 17 10 17 5 0 -5 5
-1 11 9 5 9 15 17 22 17 7 0 6 -4 -3 -10 -8 -5 -11 -10 -7 -10 4 0 18 7 31 16
17 10 26 12 31 4 5 -8 10 -8 20 0 7 6 22 13 34 15 12 2 28 11 37 20 9 8 24 19
33 25 20 10 73 109 65 122 -8 13 -26 9 -19 -4 4 -7 -1 -4 -9 6 -9 11 -16 14
-16 7 0 -7 -5 -9 -12 -4 -13 8 -18 9 -51 11 -10 1 -16 6 -13 10 2 4 -5 9 -17
9 -17 2 -19 0 -7 -7 11 -7 11 -10 2 -10 -7 0 -15 7 -18 15 -4 8 -10 12 -15 9
-5 -3 -9 0 -9 6 0 7 -7 9 -16 6 -8 -3 -13 -2 -10 3 3 5 -5 11 -19 13 -15 3
-25 1 -25 -6 0 -7 -4 -6 -9 2 -5 8 -19 11 -38 8 -17 -3 -64 -8 -104 -11 -91
-6 -129 -14 -129 -26 0 -6 -4 -8 -9 -5 -11 7 -73 -39 -64 -47 3 -4 1 -7 -6 -7
-7 0 -9 -5 -5 -12 4 -6 3 -8 -3 -5 -11 7 -66 -64 -69 -91 -2 -8 -10 -19 -19
-24 -8 -5 -13 -13 -10 -19 4 -5 0 -9 -7 -10 -74 -6 -99 -4 -109 7 -6 7 -7 19
-3 25 4 7 3 9 -4 5 -6 -3 -13 -2 -17 4 -3 5 -2 10 4 10 6 0 8 6 5 14 -3 8 -1
17 5 21 15 9 14 40 -3 54 -16 14 -46 4 -46 -15 0 -8 -4 -14 -9 -14 -10 0 -25
-47 -22 -70 2 -21 -47 -67 -79 -74 -14 -3 -37 -9 -52 -12 -17 -4 -28 -2 -28 4
0 6 -20 20 -44 31 -25 11 -47 28 -51 40 -3 12 -13 21 -22 21 -9 0 -25 10 -37
23 -11 13 -45 40 -73 61 -29 21 -53 42 -53 48 0 6 -7 7 -16 4 -10 -4 -13 -2
-8 6 5 8 2 9 -9 5 -10 -3 -17 -2 -17 4 0 6 -7 6 -19 -1 -16 -8 -22 -6 -30 7
-6 10 -11 15 -11 10 0 -4 -11 0 -25 9 -14 9 -25 14 -25 10 0 -3 -12 -1 -27 5
-41 17 -83 20 -83 8z m640 -303 c0 -2 -7 -7 -16 -10 -8 -3 -12 -2 -9 4 6 10
25 14 25 6z m93 -149 c-1 -70 -7 -124 -13 -132 -7 -8 -9 -19 -5 -24 3 -6 0 -8
-8 -6 -9 4 -22 -13 -40 -49 -15 -30 -27 -60 -27 -65 0 -6 -5 -11 -11 -11 -6 0
-9 -6 -6 -12 2 -7 0 -23 -4 -35 -5 -15 -5 -23 2 -23 6 0 7 -4 4 -10 -6 -10
-95 -15 -95 -5 0 2 11 24 24 47 26 48 40 94 37 121 -1 9 1 17 6 17 7 0 15 71
17 167 1 23 3 40 5 38 4 -4 57 51 77 81 8 11 20 21 27 21 10 0 12 -28 10 -120z
m-68 73 c-10 -11 -21 -17 -24 -14 -3 3 3 12 13 20 28 20 32 17 11 -6z m779
-352 c-3 -4 -12 -8 -20 -8 -8 0 -13 4 -10 8 3 5 12 9 20 9 8 0 13 -4 10 -9z
m-247 -14 c-3 -3 -12 -4 -19 -1 -8 3 -5 6 6 6 11 1 17 -2 13 -5z"/>
<path d="M340 1849 c0 -5 5 -7 10 -4 6 3 10 8 10 11 0 2 -4 4 -10 4 -5 0 -10
-5 -10 -11z"/>
<path d="M1130 1171 c0 -5 7 -12 16 -15 14 -5 15 -4 4 9 -14 17 -20 19 -20 6z"/>
</g>
</svg>
